{
    "asset" : {
        "generator" : "Khronos glTF Blender I/O v1.3.48",
        "version" : "2.0"
    },
    "scene" : 0,
    "scenes" : [
        {
            "name" : "Scene",
            "nodes" : [
                0
            ]
        }
    ],
    "nodes" : [
        {
            "mesh" : 0,
            "name" : "ring",
            "rotation" : [
                -0.6689648032188416,
                0,
                0,
                0.7432941794395447
            ],
            "scale" : [
                0.10000000149011612,
                0.10000000149011612,
                0.10000000149011612
            ]
        }
    ],
    "materials" : [
        {
            "doubleSided" : true,
            "emissiveFactor" : [
                0,
                0,
                0
            ],
            "name" : "material-coin",
            "pbrMetallicRoughness" : {
                "baseColorFactor" : [
                    0.8000000715255737,
                    0.3121464252471924,
                    0,
                    1
                ],
                "metallicFactor" : 0.6000000238418579,
                "roughnessFactor" : 0.20000000298023224
            }
        }
    ],
    "meshes" : [
        {
            "name" : "Ring",
            "primitives" : [
                {
                    "attributes" : {
                        "POSITION" : 0,
                        "NORMAL" : 1,
                        "TEXCOORD_0" : 2,
                        "COLOR_0" : 3
                    },
                    "indices" : 4,
                    "material" : 0
                }
            ]
        }
    ],
    "accessors" : [
        {
            "bufferView" : 0,
            "componentType" : 5126,
            "count" : 1377,
            "max" : [
                7.308359146118164,
                1.171875,
                7.3083600997924805
            ],
            "min" : [
                -7.308361053466797,
                -1.171875,
                -7.308361053466797
            ],
            "type" : "VEC3"
        },
        {
            "bufferView" : 1,
            "componentType" : 5126,
            "count" : 1377,
            "type" : "VEC3"
        },
        {
            "bufferView" : 2,
            "componentType" : 5126,
            "count" : 1377,
            "type" : "VEC2"
        },
        {
            "bufferView" : 3,
            "componentType" : 5126,
            "count" : 1377,
            "type" : "VEC4"
        },
        {
            "bufferView" : 4,
            "componentType" : 5123,
            "count" : 7680,
            "type" : "SCALAR"
        }
    ],
    "bufferViews" : [
        {
            "buffer" : 0,
            "byteLength" : 16524,
            "byteOffset" : 0
        },
        {
            "buffer" : 0,
            "byteLength" : 16524,
            "byteOffset" : 16524
        },
        {
            "buffer" : 0,
            "byteLength" : 11016,
            "byteOffset" : 33048
        },
        {
            "buffer" : 0,
            "byteLength" : 22032,
            "byteOffset" : 44064
        },
        {
            "buffer" : 0,
            "byteLength" : 15360,
            "byteOffset" : 66096
        }
    ],
    "buffers" : [
        {
            "byteLength" : 81456,
            "uri" : "data:application/octet-stream;base64,"
        }
    ]
}
